<svg xmlns="http://www.w3.org/2000/svg" viewBox="0 0 1710 991" role="img" aria-labelledby="title desc">
  <title id="title">OpenEye</title>
  <desc id="desc">OpenEye logo mark and wordmark.</desc>
  <path fill="#1296e8" d="M625 234c13-119 114-211 236-211 122 0 223 92 236 211 8-1 16-1 24-1 85 0 154 69 154 154s-69 154-154 154c-50 0-96-24-125-62l42-50c19 27 49 45 83 45 47 0 86-39 86-87s-39-86-86-86c-28 0-54 14-70 35L939 432l-25-25 101-150c-4-92-72-166-154-166-83 0-151 74-154 167l47 40-45 48c-21-28-51-45-84-45-48 0-87 39-87 86s39 87 87 87c26 0 51-12 67-32l121-128-25-40 129-39-31 130-27-28-137 146c-30 36-74 58-122 58-85 0-154-69-154-154s69-154 154-154c8 0 16 0 24 1Z"/>
  <path fill="#0e0799" d="M177 916c-41 0-73-10-96-30-23-21-34-49-31-85 4-47 21-86 51-117 30-31 69-47 116-47 42 0 74 11 96 32 21 21 29 51 22 88-7 48-25 86-54 116-29 29-64 43-104 43Zm8-55c19 0 35-9 48-26 13-18 21-41 24-69 2-23-2-41-10-54-8-13-21-19-38-19-20 0-38 10-53 31-16 20-25 45-29 75-2 20 2 36 12 47 10 10 25 15 46 15Z"/>
  <path fill="#0e0799" d="m307 967 58-250h64l-3 12c14-11 31-17 52-17 24 0 42 8 54 23 12 15 16 36 13 62-4 35-16 63-36 85-19 22-43 33-70 33-23 0-40-6-53-16l-16 68h-63Zm128-101c12 0 22-6 31-18 9-12 14-27 16-46 1-12-1-22-6-29-5-6-13-10-24-10-13 0-24 6-32 18-8 12-13 28-15 48-1 11 2 20 7 27 6 7 14 10 23 10Z"/>
  <path fill="#0e0799" d="M657 910c-34 0-59-8-75-25-17-17-23-40-19-70 4-32 16-57 37-75 21-19 48-28 82-28 32 0 56 8 72 25 16 16 21 39 16 68l-4 23H630c0 12 3 21 9 27 6 6 16 9 30 9 19 0 34-5 44-14h45c-18 40-52 60-101 60Zm-21-120h65c1-10-1-18-6-23-5-6-13-9-24-9-10 0-18 3-25 9-5 6-9 14-10 23Z"/>
  <path fill="#0e0799" d="m771 905 45-193h63l-2 12c15-8 34-12 58-12 25 0 43 6 53 19 10 12 13 30 8 54l-28 120h-65l25-108c3-12 2-21-2-27-5-6-13-9-26-9-22 0-36 13-43 40l-24 104h-62Z"/>
  <path fill="#0e0799" d="m1009 905 56-260h214l-12 57h-139l-8 38h129l-12 58h-129l-11 53h141l-12 54h-217Z"/>
  <path fill="#0e0799" d="m1258 967 12-55h29c7 0 12-1 14-3 3-2 5-6 7-12l-41-180h73l12 115 49-115h75l-93 188c-11 22-24 38-39 48-15 9-37 14-66 14h-32Z"/>
  <path fill="#0e0799" d="M1571 910c-34 0-59-8-75-25-17-17-23-40-19-70 4-32 16-57 37-75 21-19 48-28 82-28 32 0 56 8 72 25 16 16 21 39 16 68l-4 23h-136c0 12 3 21 9 27 6 6 16 9 30 9 19 0 34-5 44-14h45c-18 40-52 60-101 60Zm-21-120h65c1-10-1-18-6-23-5-6-13-9-24-9-10 0-18 3-25 9-5 6-9 14-10 23Z"/>
  <path fill="#0e0799" d="M1682 644c7 0 13 2 17 7 5 5 7 11 7 18s-2 13-7 18c-4 5-10 7-17 7s-13-2-18-7c-4-5-7-11-7-18s3-13 7-18c5-5 11-7 18-7Zm0 5c-6 0-10 2-14 6-4 3-6 8-6 14s2 11 6 15c4 4 8 5 14 5 5 0 10-1 13-5 4-4 6-9 6-15s-2-11-6-14c-3-4-8-6-13-6Zm-10 33v-27h11c7 0 10 3 10 8 0 4-2 6-5 8l6 11h-7l-5-10h-4v10h-6Zm6-15h4c3 0 5-1 5-4 0-2-2-3-5-3h-4v7Z"/>
</svg>
